<?xml version="1.0" standalone="no"?>
<!DOCTYPE svg PUBLIC "-//W3C//DTD SVG 20010904//EN"
 "http://www.w3.org/TR/2001/REC-SVG-20010904/DTD/svg10.dtd">
<svg version="1.0" xmlns="http://www.w3.org/2000/svg"
 width="7500.000000pt" height="5000.000000pt" viewBox="0 0 7500.000000 5000.000000"
 preserveAspectRatio="xMidYMid meet">
<metadata>
Created by potrace 1.16, written by Peter Selinger 2001-2019
</metadata>
<g transform="translate(0.000000,5000.000000) scale(0.100000,-0.100000)"
fill="#000000" stroke="none">
<path d="M40447 42010 c5 -8 205 -283 443 -610 239 -327 602 -827 809 -1110
575 -791 673 -924 681 -933 6 -7 472 492 477 511 1 4 -60 61 -135 128 -167
147 -2203 1954 -2252 1998 -19 17 -29 24 -23 16z"/>
<path d="M40600 41967 c5 -5 195 -97 595 -287 55 -26 249 -118 430 -205 182
-87 375 -179 430 -205 55 -26 206 -98 335 -160 129 -62 323 -154 430 -205 107
-51 305 -145 439 -209 135 -64 248 -115 252 -114 18 6 168 182 162 189 -5 3
-55 25 -113 47 -58 22 -609 237 -1225 477 -1935 755 -1742 680 -1735 672z"/>
<path d="M35816 38199 c-144 -25 -356 -97 -513 -173 -214 -105 -346 -198 -489
-349 -158 -164 -281 -373 -429 -722 -198 -467 -271 -622 -389 -818 -227 -376
-527 -702 -926 -1006 -63 -49 -232 -168 -375 -266 -452 -310 -603 -431 -809
-646 -217 -226 -436 -509 -581 -751 -431 -717 -580 -1470 -415 -2104 41 -161
90 -287 190 -489 148 -302 311 -528 554 -771 125 -125 297 -274 314 -274 4 0
41 100 83 222 l76 221 -68 30 c-38 17 -69 35 -69 39 0 13 127 345 228 598 425
1060 775 1709 1149 2125 297 330 636 511 1058 564 50 6 108 14 130 18 22 3
251 9 510 12 l469 6 13 60 c27 133 84 486 122 755 31 220 71 522 71 536 0 1
-40 34 -90 73 -144 116 -288 296 -365 459 -27 59 -31 63 -55 55 -50 -16 -133
-9 -181 15 -108 53 -212 205 -240 350 -18 93 -8 199 25 266 50 103 128 138
244 110 l69 -17 64 34 c76 40 215 170 304 284 170 217 376 590 540 976 l58
136 72 7 c93 8 269 -8 370 -35 269 -70 474 -245 619 -529 56 -109 114 -264
136 -362 l13 -58 38 6 c54 9 84 -1 130 -43 128 -115 166 -399 79 -578 -34 -72
-64 -102 -117 -120 l-38 -13 -7 -97 c-25 -350 -161 -661 -383 -880 -50 -49
-121 -108 -157 -130 l-66 -40 -12 -65 c-44 -248 -128 -909 -132 -1045 l-3 -80
210 -6 c316 -10 544 -48 810 -136 115 -38 336 -126 466 -186 l77 -35 6 30 c23
118 -9 860 -65 1468 -58 644 -131 1186 -205 1525 -101 469 -202 751 -355 1002
-262 428 -755 764 -1243 848 -126 21 -380 19 -520 -6z"/>
<path d="M33745 30657 c-87 -93 -195 -329 -340 -747 -32 -91 -59 -167 -61
-169 -2 -2 -24 4 -49 14 -26 9 -48 15 -51 13 -14 -15 -212 -464 -206 -469 20
-19 320 -78 507 -100 148 -18 476 -15 618 5 150 21 150 21 142 60 -63 303
-330 1257 -382 1361 -26 52 -64 85 -97 85 -24 0 -41 -12 -81 -53z"/>
<path d="M46083 26811 c-54 -39 -134 -141 -310 -393 -274 -393 -335 -422 -298
-143 26 199 11 286 -53 302 -51 12 -74 -40 -166 -370 -20 -70 -60 -180 -90
-245 -87 -189 -123 -321 -130 -480 -2 -50 -9 -90 -18 -104 -8 -13 -86 -162
-173 -333 -397 -780 -521 -1015 -670 -1265 -101 -168 -180 -283 -256 -372 -89
-102 -655 -628 -1239 -1152 -135 -121 -243 -224 -242 -230 2 -6 37 -127 78
-269 132 -460 221 -841 243 -1046 6 -51 12 -96 15 -98 6 -6 1469 1644 1813
2045 354 411 585 879 938 1897 36 105 72 209 81 232 33 89 190 191 686 444
304 155 444 237 455 266 21 55 -115 60 -348 13 -84 -17 -154 -29 -156 -26 -2
2 56 52 129 112 229 186 357 316 379 382 11 32 10 37 -11 54 -53 43 -134 10
-349 -140 -189 -133 -261 -160 -261 -99 0 37 42 111 184 325 232 350 286 495
198 531 -77 32 -170 -58 -388 -374 -119 -173 -178 -245 -201 -245 -29 0 -8 70
89 290 109 246 141 332 158 417 20 102 -11 129 -87 74z"/>
<path d="M37510 26515 c-326 -60 -873 -103 -1104 -87 -137 10 -298 -3 -363
-29 -90 -36 -87 -41 49 -92 234 -86 308 -102 405 -87 37 6 111 11 163 11 76
-1 110 4 174 25 54 18 91 25 121 22 54 -7 119 -38 123 -60 8 -40 -229 -133
-425 -167 -65 -11 -164 -19 -248 -20 -155 -1 -255 -10 -255 -21 0 -14 94 -18
270 -13 160 5 181 8 245 33 39 15 97 31 130 35 32 4 89 18 126 31 97 35 274
31 274 -6 0 -20 -146 -91 -379 -185 l-189 -76 -258 -32 c-338 -42 -346 -55
-34 -60 l180 -3 51 28 c28 15 75 35 105 44 30 9 79 31 109 50 31 19 71 39 90
44 77 22 149 4 134 -33 -8 -22 -146 -123 -308 -226 -108 -69 -133 -81 -170
-81 -24 0 -112 -7 -197 -16 -219 -23 -464 -21 -609 5 -283 50 -559 163 -890
363 -110 67 -270 148 -290 148 -4 0 -39 -47 -78 -104 -59 -89 -129 -185 -393
-542 l-37 -51 -90 23 c-141 36 -277 48 -462 41 -91 -4 -210 -14 -265 -22 -55
-9 -153 -20 -219 -25 -200 -17 -369 -61 -516 -135 -218 -110 -438 -448 -555
-856 -51 -175 -74 -325 -85 -539 -10 -203 -23 -268 -74 -375 -42 -88 -98 -152
-180 -204 -36 -22 -71 -50 -80 -63 -19 -26 -21 -80 -5 -111 17 -33 142 -173
228 -255 197 -190 536 -350 894 -423 55 -11 101 -19 102 -17 2 2 6 28 10 58
l7 55 -39 14 c-224 79 -370 251 -472 556 -38 114 -93 361 -107 481 -7 54 -9
56 -60 89 -95 61 -144 163 -152 317 -5 108 5 162 45 245 49 100 147 164 228
149 30 -6 32 -5 66 66 133 281 375 505 651 604 37 13 38 13 44 -14 3 -15 18
-70 34 -122 68 -221 197 -420 370 -568 201 -172 521 -336 892 -457 79 -26 146
-52 150 -59 13 -20 9 -140 -7 -201 -23 -87 -56 -153 -105 -208 -49 -55 -101
-85 -166 -94 l-45 -6 -45 -88 c-79 -158 -161 -275 -277 -396 l-69 -72 7 -53
c4 -29 8 -64 10 -78 2 -14 7 -54 10 -90 4 -36 9 -74 11 -85 2 -11 14 -96 25
-190 11 -93 23 -172 25 -174 2 -2 70 -12 151 -23 282 -35 765 -131 813 -160
12 -7 38 -35 59 -63 220 -293 623 -1262 1474 -3539 l74 -198 6 63 c3 35 45
585 93 1221 49 637 92 1154 96 1150 10 -10 1370 -3213 1375 -3239 4 -16 -15
-47 -70 -115 -108 -136 -105 -133 -227 -146 -238 -25 -512 -125 -565 -206 -22
-33 -6 -87 32 -107 31 -17 124 -16 207 1 54 11 60 10 78 -8 20 -19 20 -20 0
-64 -11 -25 -45 -75 -77 -113 -146 -172 -235 -326 -243 -420 -5 -66 5 -70 65
-26 31 23 52 52 92 135 60 122 102 176 137 176 31 0 38 -29 31 -134 -4 -62 -2
-75 6 -56 41 98 108 230 131 258 30 35 60 41 92 18 16 -12 19 -27 19 -84 l0
-69 31 55 c37 68 53 80 89 64 87 -40 66 -238 -47 -425 -26 -44 -46 -82 -45
-84 9 -8 161 102 250 181 53 48 97 85 97 83 0 -3 -32 -114 -70 -248 -91 -314
-194 -718 -214 -839 -54 -331 -157 -1643 -286 -3645 -67 -1048 -92 -1466 -88
-1471 4 -4 934 -24 1133 -24 l110 0 39 170 c22 93 42 174 46 180 5 7 21 7 58
-1 46 -9 51 -13 47 -32 -2 -12 -11 -71 -20 -132 -24 -161 -91 -492 -126 -625
-63 -237 -121 -351 -233 -466 l-71 -73 -140 24 c-158 27 -180 32 -395 85 -190
48 -312 89 -409 141 -40 22 -75 38 -77 36 -15 -14 -82 -324 -84 -382 0 -11 -3
-89 -6 -172 -4 -92 -2 -153 3 -153 5 0 32 6 59 14 27 8 129 28 226 46 97 17
205 39 240 48 61 17 71 17 221 1 192 -22 546 -54 762 -71 88 -7 304 -12 480
-13 l321 0 27 -144 c15 -80 25 -147 22 -150 -12 -11 -134 -20 -455 -31 -366
-14 -1579 -6 -1795 10 -66 5 -226 13 -355 16 -159 5 -227 10 -210 16 34 12 60
47 60 82 0 22 -11 40 -44 70 -49 46 -202 140 -228 140 -9 0 -14 4 -12 8 5 8
-307 167 -542 276 l-131 61 -289 5 c-159 3 -305 8 -324 10 -19 3 -98 14 -174
25 -77 11 -142 19 -144 16 -3 -2 5 -44 18 -92 12 -48 24 -122 27 -163 6 -82
-12 -214 -30 -228 -7 -5 -112 -5 -242 -1 -126 4 -421 8 -653 8 -233 1 -431 5
-440 10 -10 5 -66 97 -125 205 l-108 196 -43 0 c-75 0 -210 -88 -189 -123 3
-7 46 -69 95 -139 48 -69 88 -129 88 -132 0 -3 -159 -6 -352 -6 -387 0 -397
-1 -441 -62 -27 -37 -34 -120 -13 -153 l16 -25 -451 0 -451 0 26 30 c48 58 58
157 18 193 -43 39 -342 103 -992 211 l-424 71 -37 100 c-73 201 -152 325 -209
325 -54 0 -157 -57 -180 -100 -8 -15 2 -44 51 -145 33 -70 59 -128 57 -130 -2
-2 -129 14 -283 36 -316 45 -382 49 -427 22 -66 -39 -89 -148 -46 -224 27 -49
74 -69 260 -114 404 -97 1208 -220 1753 -268 22 -2 -804 -4 -1835 -5 -1732 -1
-1873 0 -1845 15 17 9 152 83 300 166 149 82 308 169 355 194 107 57 122 68
112 78 -4 5 -1 5 5 1 16 -9 96 37 86 49 -5 4 -2 5 5 1 12 -7 363 179 370 196
2 4 8 8 14 8 19 0 288 152 288 163 0 5 3 8 6 4 9 -9 84 31 84 45 0 6 2 9 5 6
3 -3 29 7 58 22 79 41 166 89 227 124 30 17 67 37 83 43 50 23 26 60 -60 93
-62 23 -269 64 -289 56 -8 -3 -14 -2 -14 3 0 8 -175 28 -330 37 -52 3 -97 7
-98 9 -2 2 -41 -10 -85 -26 -45 -16 -180 -64 -299 -107 -119 -42 -214 -81
-211 -86 3 -5 1 -6 -4 -3 -11 7 -80 -16 -388 -126 -99 -36 -277 -99 -395 -141
-255 -90 -274 -100 -300 -141 -27 -43 -25 -72 11 -211 67 -260 139 -443 170
-436 8 2 11 0 7 -4 -4 -4 -3 -13 3 -21 10 -11 -180 -13 -1154 -13 l-1166 0
-47 50 c-55 59 -257 228 -400 336 -55 41 -103 77 -109 82 -45 36 -161 112
-172 112 -7 0 -13 5 -13 11 0 6 -9 9 -20 6 -11 -3 -20 -1 -20 3 0 5 -27 7 -59
7 -33 -1 -58 0 -56 3 3 5 -150 22 -1095 122 -393 41 -527 31 -564 -41 -20 -38
-62 -184 -77 -266 -14 -80 -18 -258 -6 -358 l8 -67 -323 1 c-207 0 -315 4
-300 9 19 8 21 13 12 30 -33 61 -335 224 -593 319 -205 76 -215 78 -290 59
-256 -69 -630 -75 -1027 -17 -137 20 -291 46 -322 55 -13 4 -22 -10 -42 -73
-58 -184 -72 -327 -36 -363 l20 -20 -1917 0 -1918 0 -1 113 c0 95 -35 351 -49
365 -2 2 -52 -2 -112 -8 -183 -20 -432 6 -948 101 -148 27 -287 49 -308 49
-40 0 -81 -20 -422 -205 -209 -113 -318 -168 -367 -184 -37 -12 -38 -12 -104
45 -138 116 -348 239 -532 311 l-94 36 -122 -22 c-213 -37 -248 -42 -401 -47
-126 -5 -165 -3 -246 14 -165 34 -369 127 -508 231 -30 23 -57 41 -60 41 -12
0 -117 -176 -179 -298 -85 -170 -115 -265 -116 -369 -1 -100 16 -129 90 -155
47 -16 15 -17 -763 -18 l-812 0 -24 53 c-58 123 -242 293 -499 461 l-117 76
-128 5 c-527 23 -745 107 -1035 397 l-106 107 -99 -111 c-202 -228 -310 -406
-320 -530 -8 -92 8 -118 100 -162 91 -44 220 -87 417 -137 160 -41 531 -118
680 -141 73 -11 -159 -14 -1595 -18 -1679 -5 -1680 -5 -1720 -26 -125 -65
-125 -243 0 -308 l40 -21 32415 0 32415 0 40 21 c125 65 125 243 0 308 -38 20
-60 21 -376 26 l-336 5 -26 31 c-19 22 -44 36 -87 48 -87 25 -140 50 -416 199
-137 74 -282 151 -323 171 -87 44 -54 46 -441 -24 -418 -77 -550 -93 -755 -94
-99 -1 -201 3 -226 7 l-46 8 -21 -128 c-12 -70 -24 -149 -28 -175 l-6 -48
-1894 0 -1893 0 -6 38 c-11 65 -47 206 -62 245 -17 43 -13 42 -117 22 -164
-32 -428 -65 -593 -75 -250 -15 -457 1 -660 52 l-82 20 -68 -22 c-197 -65
-432 -164 -555 -235 l-77 -45 -2662 0 -2662 0 27 21 c14 11 26 29 26 39 0 63
-217 203 -645 417 l-190 95 -685 92 -685 93 -18 -21 c-35 -41 -118 -188 -167
-296 -80 -176 -103 -252 -104 -352 l-1 -88 -4420 0 c-2675 0 -4446 -4 -4485
-10 -317 -45 -2059 -45 -2380 0 -36 5 -456 10 -935 10 -749 1 -866 3 -838 15
55 24 69 81 32 129 -23 29 -169 132 -169 119 0 -4 -4 -3 -8 3 -8 13 -94 59
-104 56 -5 -1 -8 2 -8 7 0 9 -60 37 -72 33 -5 -1 -8 3 -8 9 0 5 -4 8 -9 5 -5
-4 -11 -3 -13 2 -6 15 -128 73 -140 66 -6 -4 -8 -3 -5 3 4 6 -7 16 -23 23 -33
14 -33 14 -54 145 -31 189 -31 186 18 362 24 89 95 327 157 528 l113 367 55
-6 c139 -15 346 -27 581 -32 361 -9 669 13 1159 81 135 19 247 33 249 30 4 -4
69 -712 92 -1001 13 -164 8 -219 -45 -509 -13 -71 -22 -132 -19 -135 13 -13
660 -3 864 14 190 15 588 53 770 74 l65 7 -100 29 c-142 40 -294 101 -362 145
-116 75 -197 193 -256 376 -55 168 -79 417 -81 858 -1 252 2 309 13 316 7 5
52 16 100 26 226 44 1121 249 1267 291 20 5 18 14 -58 207 -342 867 -636 1803
-768 2441 -121 586 -257 1663 -375 2956 -14 151 -25 282 -25 291 0 13 -19 10
-112 -22 -267 -89 -687 -159 -1358 -226 -222 -22 -861 -25 -1045 -5 -387 43
-717 130 -972 257 -70 35 -141 74 -156 87 l-28 23 70 375 c96 518 177 979 200
1145 56 391 90 1122 111 2360 7 458 11 549 30 670 34 230 90 422 159 553 l31
57 -52 -55 c-139 -149 -187 -261 -323 -769 l-69 -254 -63 244 c-139 535 -327
1206 -463 1654 -33 110 -131 434 -216 720 -436 1456 -906 2995 -937 3062 -12
27 -8 27 -167 -2z"/>
<path d="M41425 26325 c-245 -40 -459 -150 -566 -292 -23 -32 -46 -62 -50 -66
-3 -5 -16 12 -28 37 -53 108 -206 215 -356 247 -92 20 -291 15 -415 -10 -136
-28 -346 -99 -452 -151 -296 -148 -451 -402 -452 -741 l0 -117 -81 -36 c-369
-166 -549 -473 -506 -861 35 -313 139 -499 299 -537 l48 -12 -14 -75 c-18 -97
-20 -366 -3 -451 38 -200 111 -342 230 -452 101 -94 231 -156 441 -210 91 -24
145 -31 256 -35 166 -7 254 9 350 60 l61 33 28 -53 c88 -170 244 -310 425
-384 l77 -32 6 -131 c8 -200 52 -297 169 -375 131 -88 335 -88 510 0 79 40
187 144 227 218 46 87 54 142 36 268 -8 59 -15 114 -15 122 0 10 33 33 85 59
186 95 343 232 426 372 49 84 89 210 89 284 l0 51 98 1 c117 0 200 26 320 100
194 120 443 434 568 715 150 339 146 635 -13 902 -90 152 -237 283 -506 452
-14 9 -15 20 -6 90 6 44 8 127 5 185 -23 404 -234 678 -601 781 -186 52 -512
73 -690 44z"/>
<path d="M23765 25950 c-332 -19 -618 -88 -813 -197 -35 -19 -95 -65 -134
-101 -217 -204 -323 -509 -335 -957 -11 -402 61 -718 243 -1075 158 -309 344
-514 623 -687 55 -35 103 -63 106 -63 3 0 5 27 5 60 0 59 -1 62 -71 152 -39
51 -89 131 -112 179 l-41 85 -65 0 c-78 0 -126 21 -190 85 -80 80 -128 191
-138 320 -14 176 75 309 205 309 l37 0 1 128 c2 381 120 661 393 932 152 150
264 217 451 267 92 24 334 24 450 -1 241 -52 407 -141 554 -297 133 -141 226
-308 297 -530 l40 -127 38 -6 c21 -3 54 -17 75 -31 20 -14 39 -25 41 -25 9 0
4 107 -10 212 -23 173 -114 624 -147 727 -52 165 -109 263 -213 366 -72 73
-108 100 -180 137 -200 102 -385 138 -730 143 -132 2 -303 0 -380 -5z"/>
<path d="M19520 25654 c-131 -15 -204 -29 -265 -48 -64 -20 -75 -21 -125 -9
-77 19 -261 18 -335 -2 -88 -23 -212 -85 -278 -140 -82 -67 -151 -154 -241
-304 -101 -170 -143 -269 -171 -407 -42 -203 -121 -315 -283 -404 -45 -25
-118 -65 -161 -89 -98 -54 -166 -118 -200 -191 -21 -45 -26 -74 -29 -162 -8
-212 55 -394 159 -461 28 -18 28 -20 13 -48 -31 -60 -54 -180 -54 -278 0 -209
78 -370 266 -551 219 -211 500 -336 777 -346 102 -4 125 -8 169 -30 74 -37 78
-33 78 88 0 148 -1 144 83 158 150 25 337 97 466 180 85 54 231 198 278 274
l29 46 40 -453 39 -452 35 3 c48 3 306 74 467 128 117 39 144 44 221 44 207 0
470 127 649 313 138 144 185 252 182 417 -1 89 1 98 26 135 92 136 145 292
145 430 0 165 -45 265 -184 414 -226 244 -337 439 -524 921 -139 358 -160 406
-207 474 -110 161 -330 278 -615 327 -109 19 -373 32 -450 23z m-142 -384
c269 -76 465 -284 581 -614 28 -79 75 -282 83 -360 3 -27 8 -31 53 -42 59 -15
108 -63 124 -121 16 -56 13 -188 -5 -262 -33 -134 -118 -274 -182 -300 -25
-11 -34 -24 -57 -94 -63 -187 -144 -328 -263 -465 -111 -125 -250 -213 -447
-282 -326 -114 -566 -65 -775 157 -174 184 -285 421 -337 719 -23 134 -23 474
0 627 40 264 96 454 189 647 53 110 69 134 137 200 122 120 278 189 474 210
136 14 341 5 425 -20z"/>
<path d="M62490 25504 c-272 -41 -473 -133 -607 -277 -62 -67 -70 -81 -178
-317 -74 -161 -144 -293 -330 -625 -307 -545 -430 -792 -575 -1155 -396 -993
-443 -1842 -134 -2430 l45 -84 -11 -126 c-32 -377 -32 -907 0 -1180 5 -47 10
-86 10 -87 0 -2 49 -3 110 -3 l109 0 5 -32 c3 -18 13 -98 22 -178 95 -874 372
-2026 508 -2115 17 -12 57 -19 126 -22 l100 -6 0 130 0 130 123 61 c67 33 141
74 165 91 l43 32 -71 77 c-137 147 -221 271 -292 427 -164 364 -269 914 -318
1680 -29 448 -21 1411 15 1646 44 293 157 457 350 509 l64 17 75 -166 c305
-677 452 -1140 521 -1651 23 -162 31 -534 16 -690 -12 -124 -12 -128 23 -353
69 -434 113 -603 176 -671 21 -22 40 -39 43 -36 2 3 22 52 45 110 205 529 249
1077 147 1795 -72 505 -242 1134 -443 1645 l-50 125 67 11 c36 6 105 17 154
24 76 11 88 15 91 34 3 11 21 212 41 446 20 234 38 444 42 467 l5 43 48 -68
c62 -87 177 -197 267 -256 124 -80 315 -152 466 -176 l77 -13 0 -71 c1 -91 17
-256 30 -305 8 -30 16 -40 38 -44 27 -6 28 -7 70 -214 219 -1064 513 -2064
786 -2671 25 -56 46 -104 46 -107 0 -3 -348 -5 -774 -5 -479 0 -784 -4 -800
-10 -14 -5 -35 -24 -46 -42 -38 -63 -20 -126 45 -158 40 -19 60 -20 727 -20
l685 0 83 -102 c46 -57 110 -138 144 -180 l61 -78 118 0 117 0 -145 180 -146
180 403 2 c390 3 402 4 371 21 -29 15 -69 17 -422 17 l-389 0 -32 41 c-18 22
-56 53 -84 69 -50 29 -55 30 -187 30 -119 0 -138 -2 -152 -18 -10 -10 -17 -26
-17 -35 0 -15 13 -17 98 -17 l97 0 28 -35 28 -35 -641 0 c-392 0 -648 4 -659
10 -31 16 -46 65 -31 100 7 17 21 35 31 40 11 6 449 10 1163 10 895 0 1151 3
1173 13 23 10 -6 13 -192 17 l-220 5 -88 290 c-463 1526 -763 2602 -741 2659
5 12 48 30 343 142 107 41 196 76 198 78 18 17 28 188 27 451 0 296 -1 304
-42 605 -114 824 -165 1056 -284 1278 -50 94 -64 133 -83 225 -27 130 -48 188
-114 312 -119 222 -240 373 -368 456 -141 92 -343 129 -520 96 -77 -15 -84
-15 -145 4 -154 49 -472 64 -678 33z m1108 -364 c160 -39 298 -122 390 -233
132 -161 254 -529 292 -885 18 -159 7 -477 -19 -602 -41 -193 -89 -321 -175
-466 -180 -303 -426 -449 -703 -415 -187 23 -428 122 -571 237 -159 127 -295
333 -368 558 -24 74 -30 83 -70 108 -145 90 -241 435 -165 592 25 51 88 96
133 96 23 0 26 5 33 48 78 544 330 891 711 976 100 23 397 15 512 -14z"/>
<path d="M53232 22472 c-35 -11 -127 -108 -189 -202 -179 -267 -347 -680 -651
-1590 l-165 -495 -62 -360 c-34 -198 -62 -361 -61 -362 1 -1 369 645 817 1437
l814 1440 30 -6 c17 -3 37 -7 46 -10 12 -3 19 11 31 68 9 40 14 75 13 76 -6 6
-118 -29 -178 -55 l-58 -26 -117 37 c-97 30 -222 59 -242 55 -3 -1 -15 -4 -28
-7z"/>
<path d="M10055 22441 c-87 -18 -131 -38 -231 -105 l-64 -43 45 -17 c90 -35
206 -169 289 -333 135 -270 250 -684 298 -1073 19 -158 16 -603 -6 -760 -54
-396 -167 -734 -321 -965 -43 -65 -54 -89 -50 -111 8 -50 14 -163 21 -354 4
-102 8 -196 9 -210 2 -14 3 -44 4 -68 l1 -43 83 62 c173 131 357 333 461 506
59 99 123 243 155 350 111 374 143 1112 70 1616 -82 573 -279 1094 -560 1483
-69 96 -64 94 -204 65z"/>
<path d="M54952 22258 l3 -143 100 -17 c55 -10 110 -20 121 -23 l22 -5 -1
-682 c0 -376 3 -755 7 -843 39 -918 84 -1182 263 -1526 83 -161 227 -340 332
-411 l23 -16 -55 -254 c-31 -139 -72 -329 -92 -423 -20 -93 -47 -222 -60 -285
-14 -63 -28 -135 -31 -158 l-7 -44 59 7 c93 10 184 41 251 85 221 145 428 534
668 1255 196 591 276 1002 300 1553 2 67 1 122 -3 122 -11 0 -374 -359 -514
-508 -213 -227 -246 -281 -309 -512 l-23 -85 -33 305 c-97 906 -209 2083 -215
2249 l-3 84 227 126 c128 70 222 128 215 132 -15 8 -211 44 -347 63 -230 33
-797 96 -868 96 l-33 0 3 -142z"/>
<path d="M11614 22163 c3 -10 96 -342 206 -738 110 -396 311 -1119 447 -1607
136 -488 248 -886 250 -884 8 8 -76 770 -118 1066 -46 323 -149 773 -275 1200
-65 223 -217 678 -277 834 l-35 89 -93 29 c-111 33 -112 33 -105 11z"/>
<path d="M8570 19683 c0 -5 -16 -214 -35 -463 -39 -517 -80 -1084 -95 -1337
-9 -143 -8 -178 3 -206 31 -73 156 -144 352 -200 66 -19 136 -37 156 -41 l36
-6 68 226 c49 167 66 237 62 263 -3 20 -19 117 -36 216 -58 345 -61 386 -61
935 l0 506 -147 18 c-81 9 -151 20 -155 22 -4 3 -8 18 -8 35 0 24 -4 29 -24
29 -13 0 -44 3 -70 6 -26 4 -46 3 -46 -3z"/>
<path d="M17006 19135 c16 -12 178 -14 1174 -15 1279 0 1187 5 1210 -66 14
-42 6 -81 -22 -111 l-21 -23 -1153 0 c-1078 0 -1155 -1 -1188 -17 l-36 -18 0
-717 0 -718 23 -4 c12 -3 65 -12 117 -22 52 -9 162 -32 243 -50 135 -31 151
-33 170 -19 12 8 17 15 12 15 -5 0 0 6 11 14 18 14 18 16 1 48 -26 49 -105
130 -119 122 -6 -4 -8 -3 -5 3 3 5 -6 27 -20 48 -36 52 -37 114 -4 149 20 21
34 26 70 26 79 0 137 -40 465 -323 176 -152 320 -248 347 -231 8 4 9 3 5 -4
-5 -9 6 -12 36 -12 65 0 203 70 433 219 125 81 622 446 655 481 3 3 26 21 52
40 l48 35 -3 542 c-2 532 -2 542 -23 570 -11 15 -32 34 -45 40 -19 10 -293 13
-1238 13 -1066 0 -1212 -2 -1195 -15z"/>
<path d="M34910 18800 c0 -3 13 -196 30 -430 50 -720 69 -995 220 -3185 38
-555 72 -1038 76 -1073 l6 -63 -64 -28 c-35 -16 -138 -57 -230 -91 l-166 -63
4 -51 c2 -28 18 -330 35 -671 16 -341 34 -633 39 -650 15 -47 48 -211 65 -318
51 -319 72 -763 56 -1168 -6 -156 -14 -315 -17 -354 -12 -161 -35 -418 -43
-479 l-7 -66 126 0 127 0 52 323 c29 177 263 1627 520 3222 l467 2900 -76 90
c-385 452 -772 1121 -1131 1955 -49 113 -89 203 -89 200z"/>
<path d="M19465 16767 c-286 -157 -805 -301 -1205 -336 -265 -23 -697 9 -974
73 -35 9 -75 17 -87 20 -54 11 -173 48 -200 62 l-29 15 0 -536 0 -535 1270 0
1270 0 0 630 c0 347 -2 630 -3 629 -1 0 -20 -10 -42 -22z"/>
<path d="M12562 16527 c-40 -48 -318 -160 -526 -213 -291 -74 -723 -139 -1084
-163 -73 -5 -135 -10 -137 -12 -2 -2 -1 -31 2 -65 l5 -60 72 -37 c94 -48 164
-111 224 -200 76 -114 92 -209 38 -223 -30 -7 -75 12 -158 69 -76 52 -101 60
-106 34 -5 -25 32 -70 198 -242 215 -222 285 -330 259 -404 -15 -44 -51 -58
-231 -92 -37 -7 -75 -23 -105 -44 -27 -19 -60 -43 -76 -52 -26 -17 -27 -22
-22 -68 3 -27 82 -1186 175 -2575 94 -1389 173 -2544 176 -2567 l5 -43 504 0
504 0 5 33 c3 17 8 77 11 132 3 55 19 312 35 570 119 1884 203 3511 250 4805
14 381 25 1346 16 1393 -7 39 -16 46 -34 24z"/>
<path d="M26005 16129 c-147 -45 -693 -148 -956 -179 l-96 -12 -242 -547 -243
-546 -64 -263 -64 -263 576 -1202 c594 -1238 1585 -3237 1606 -3237 18 0 227
85 433 177 327 145 584 287 689 379 l29 25 -427 1497 c-355 1249 -1176 4164
-1176 4178 0 6 -32 3 -65 -7z"/>
<path d="M44896 13399 c-80 -11 -144 -43 -152 -76 -9 -35 43 -133 123 -233 76
-95 399 -423 568 -577 347 -316 867 -733 982 -788 31 -15 36 -15 75 3 78 34
171 156 267 349 62 124 109 241 117 291 l6 38 -545 430 c-300 236 -560 434
-579 440 -72 25 -356 86 -481 104 -172 24 -295 30 -381 19z"/>
</g>
</svg>
