<?xml version="1.0" standalone="no"?>
<!DOCTYPE svg PUBLIC "-//W3C//DTD SVG 20010904//EN"
 "http://www.w3.org/TR/2001/REC-SVG-20010904/DTD/svg10.dtd">
<svg version="1.0" xmlns="http://www.w3.org/2000/svg"
 width="626.000000pt" height="511.000000pt" viewBox="0 0 626.000000 511.000000"
 preserveAspectRatio="xMidYMid meet">
<metadata>
Created by potrace 1.16, written by Peter Selinger 2001-2019
</metadata>
<g transform="translate(0.000000,511.000000) scale(0.100000,-0.100000)"
fill="#000000" stroke="none">
<path d="M3040 4345 c-82 -37 -128 -110 -142 -224 -11 -90 -25 -114 -85 -149
-108 -63 -119 -91 -84 -214 23 -80 18 -110 -34 -203 -21 -38 -37 -82 -38 -101
-1 -36 31 -89 53 -89 6 0 24 34 39 75 40 110 57 137 104 171 64 47 193 109
226 109 25 0 30 5 35 34 9 45 0 79 -35 141 -18 34 -38 54 -58 62 -24 8 -31 17
-31 37 0 26 9 30 58 26 12 -1 22 3 22 8 0 5 33 48 74 96 41 47 76 91 78 97 2
7 22 2 54 -14 57 -29 104 -88 104 -131 0 -16 4 -25 10 -21 18 11 23 -25 7 -43
-9 -10 -21 -41 -28 -70 -11 -55 -46 -107 -79 -117 -16 -5 -20 -15 -20 -56 0
-37 4 -49 15 -49 24 0 166 -74 217 -113 l46 -35 6 32 c7 38 2 57 -31 108 -39
59 -54 124 -62 284 -12 215 -41 275 -163 329 -77 35 -204 44 -258 20z"/>
<path d="M5015 2597 c-147 -358 -269 -653 -270 -655 -2 -2 -25 61 -160 438
-92 258 -99 274 -102 263 -2 -5 53 -167 122 -358 69 -192 125 -356 125 -365 0
-15 -85 -228 -94 -238 -2 -2 -14 14 -27 35 -13 21 -45 61 -71 88 l-47 51 35
-4 c26 -3 44 2 65 17 15 11 37 21 49 21 58 0 40 108 -22 135 -23 9 -37 24 -46
49 -9 25 -24 40 -52 53 -30 14 -40 24 -40 42 0 33 -35 102 -65 131 -13 12 -47
29 -75 36 -101 26 -204 -27 -220 -115 -9 -51 1 -63 16 -19 8 26 20 37 55 50
89 34 121 20 172 -77 30 -56 35 -60 66 -60 32 0 36 -3 44 -35 20 -82 20 -91
-2 -121 -22 -29 -22 -58 0 -85 5 -6 -12 -1 -38 12 -56 27 -88 30 -109 9 -28
-27 -99 -15 -92 16 2 11 -14 15 -72 19 l-75 5 21 20 c11 11 29 25 39 31 18 10
18 12 -3 39 -12 15 -22 42 -22 59 0 18 -7 41 -15 52 -15 19 -16 18 -40 -9 -14
-15 -25 -37 -25 -47 0 -12 -10 -21 -29 -25 -27 -6 -51 -38 -51 -69 0 -7 11
-23 24 -35 24 -23 24 -23 6 -54 -11 -18 -22 -51 -26 -73 l-6 -42 56 -33 c66
-39 63 -23 43 -277 l-13 -153 51 -15 c69 -22 263 -30 353 -14 72 12 72 12 72
43 0 25 10 41 47 76 41 36 42 39 11 17 -21 -15 -38 -25 -38 -22 0 3 9 28 20
56 11 28 16 49 11 46 -5 -4 -17 -26 -27 -51 -9 -25 -20 -45 -24 -45 -4 0 -11
38 -16 84 -7 67 -7 82 3 74 13 -11 52 12 87 51 12 13 22 17 26 11 3 -5 156
355 340 800 183 446 331 812 328 815 -2 3 -125 -289 -273 -648z"/>
<path d="M3056 2588 c-3 -13 -7 -95 -9 -183 -5 -178 -14 -214 -66 -258 -26
-21 -43 -27 -82 -27 -27 0 -65 7 -84 14 -33 14 -35 14 -39 -7 -3 -12 -18 -317
-35 -677 -17 -360 -34 -683 -37 -717 l-6 -61 73 -6 c41 -4 94 -3 119 1 l45 8
107 670 c58 369 109 690 113 713 4 24 8 42 10 40 4 -4 70 -884 95 -1263 16
-229 0 -205 134 -205 l114 0 6 507 c3 280 9 616 12 748 l6 240 -66 -3 c-64 -4
-68 -2 -100 30 -47 47 -56 88 -63 286 l-6 172 -118 0 c-115 0 -119 -1 -123
-22z"/>
<path d="M1951 2443 c-13 -10 -34 -34 -47 -55 -14 -21 -29 -36 -34 -33 -5 3
-14 -19 -21 -49 -9 -43 -9 -64 0 -98 12 -43 13 -44 54 -43 39 1 42 3 75 63 18
34 46 71 62 82 27 20 28 20 88 -1 53 -18 62 -25 76 -57 12 -30 15 -33 15 -14
1 13 10 35 21 49 27 35 26 42 -15 59 -30 12 -34 17 -25 34 15 29 14 30 -47 30
l-56 0 19 21 c19 22 19 22 -6 14 -40 -13 -94 -25 -113 -25 -15 0 -16 3 -7 20
13 25 -4 26 -39 3z"/>
<path d="M5092 2453 c-13 -2 -28 -15 -34 -28 -5 -12 -21 -28 -34 -34 -13 -6
-30 -23 -36 -37 -11 -24 -10 -29 10 -42 13 -8 22 -25 23 -41 l1 -26 9 26 c7
17 22 30 47 38 20 7 44 15 52 18 11 4 10 0 -4 -15 -17 -20 -17 -22 -2 -28 9
-4 34 -4 55 0 29 4 40 2 45 -9 3 -8 11 -15 18 -15 7 0 22 -17 33 -38 18 -33
24 -37 58 -36 22 0 42 5 45 11 4 5 15 12 25 16 19 7 22 29 7 58 -7 13 -7 19 0
19 19 0 10 20 -14 32 -15 6 -26 21 -28 36 -6 54 -183 115 -276 95z"/>
<path d="M1024 1992 c-94 -33 -167 -113 -215 -236 -16 -43 -28 -84 -25 -91 5
-13 105 -55 130 -55 8 0 17 12 20 26 14 54 17 12 7 -83 -19 -164 -22 -187 -26
-191 -2 -3 -23 10 -47 29 -71 54 -75 57 -59 36 7 -9 35 -33 61 -52 47 -34 48
-36 43 -78 -3 -23 -6 -43 -7 -44 0 -1 -91 -9 -201 -18 -110 -10 -202 -19 -204
-21 -8 -7 91 -3 249 10 85 7 156 12 157 12 1 -1 -3 -48 -8 -105 -6 -56 -8
-105 -5 -108 8 -8 534 22 542 30 4 4 -5 118 -20 255 -15 136 -28 274 -29 306
l-2 59 52 21 c28 12 55 25 59 28 8 9 -66 137 -112 195 -27 33 -48 46 -98 63
-50 16 -70 19 -85 11 -28 -16 -67 -14 -85 4 -18 19 -29 19 -92 -3z m246 -411
l0 -110 -55 -26 -54 -27 -56 28 -55 28 0 108 0 108 110 0 110 0 0 -109z"/>
<path d="M4931 1206 c-12 -100 -24 -189 -27 -199 -5 -16 3 -17 118 -15 l123 3
10 55 11 55 6 -53 c3 -29 7 -54 9 -56 2 -2 61 1 132 6 l127 11 -1 41 c0 23 -4
79 -8 126 l-8 84 36 51 c44 59 54 75 47 75 -2 0 -23 -26 -45 -57 -39 -56 -41
-57 -41 -28 0 17 -3 40 -6 51 -5 20 -9 21 -42 11 -55 -17 -285 -14 -358 4
l-61 16 -22 -181z"/>
<path d="M2200 1344 c-57 -15 -317 -15 -351 0 -15 6 -18 -7 -25 -114 l-9 -121
-55 41 c-56 42 -90 64 -90 57 0 -2 33 -27 74 -56 l73 -52 -4 -67 c-2 -37 -7
-118 -11 -180 -4 -62 -6 -115 -3 -118 2 -2 58 -4 123 -4 l118 0 1 78 c1 110
17 140 20 37 1 -44 3 -88 2 -97 0 -16 13 -18 126 -18 l126 0 -6 93 c-4 50 -10
192 -14 315 -8 250 1 230 -95 206z"/>
<path d="M4851 530 c-29 -28 -49 -55 -46 -60 7 -11 163 -14 189 -4 12 5 16 20
16 60 l0 54 -53 0 c-51 0 -57 -3 -106 -50z"/>
<path d="M5210 534 c-74 -70 -70 -77 49 -72 55 1 102 6 106 9 3 4 3 30 -1 58
l-7 51 -49 0 c-44 0 -53 -4 -98 -46z"/>
<path d="M2795 550 c-58 -21 -123 -25 -159 -9 -22 10 -34 8 -83 -17 -111 -56
-71 -78 130 -71 156 5 162 8 173 75 7 47 8 47 -61 22z"/>
<path d="M3310 551 c0 -32 21 -79 38 -86 26 -11 234 -18 286 -11 64 10 58 32
-17 70 -49 25 -62 27 -83 17 -37 -17 -94 -13 -159 9 -70 24 -65 24 -65 1z"/>
</g>
</svg>
